<mxfile host="app.diagrams.net" modified="2024-01-06T05:21:56.920Z" agent="Mozilla/5.0 (Windows NT 10.0; Win64; x64) AppleWebKit/537.36 (KHTML, like Gecko) Chrome/120.0.0.0 Safari/537.36" etag="JcQIaW767onHoWYyF1DR" version="22.1.16" type="github">
  <diagram name="Page-1" id="JGcFwJvAqIjM5sOoiluU">
    <mxGraphModel dx="1050" dy="522" grid="1" gridSize="10" guides="1" tooltips="1" connect="1" arrows="1" fold="1" page="1" pageScale="1" pageWidth="850" pageHeight="1100" math="0" shadow="0">
      <root>
        <mxCell id="0" />
        <mxCell id="1" parent="0" />
        <mxCell id="-v4zE6dxOBKlKihDwpab-3" value="" style="edgeStyle=orthogonalEdgeStyle;rounded=0;hachureGap=4;orthogonalLoop=1;jettySize=auto;html=1;fontFamily=Architects Daughter;fontSource=https%3A%2F%2Ffonts.googleapis.com%2Fcss%3Ffamily%3DArchitects%2BDaughter;fontSize=16;" edge="1" parent="1" source="-v4zE6dxOBKlKihDwpab-1" target="-v4zE6dxOBKlKihDwpab-2">
          <mxGeometry relative="1" as="geometry" />
        </mxCell>
        <mxCell id="-v4zE6dxOBKlKihDwpab-1" value="&lt;font style=&quot;font-size: 13px;&quot; face=&quot;Verdana&quot;&gt;Dataset&lt;/font&gt;" style="rounded=0;whiteSpace=wrap;html=1;hachureGap=4;fontFamily=Architects Daughter;fontSource=https%3A%2F%2Ffonts.googleapis.com%2Fcss%3Ffamily%3DArchitects%2BDaughter;fontSize=20;" vertex="1" parent="1">
          <mxGeometry x="340" y="40" width="100" height="50" as="geometry" />
        </mxCell>
        <mxCell id="-v4zE6dxOBKlKihDwpab-5" value="" style="edgeStyle=orthogonalEdgeStyle;rounded=0;hachureGap=4;orthogonalLoop=1;jettySize=auto;html=1;fontFamily=Architects Daughter;fontSource=https%3A%2F%2Ffonts.googleapis.com%2Fcss%3Ffamily%3DArchitects%2BDaughter;fontSize=16;" edge="1" parent="1" source="-v4zE6dxOBKlKihDwpab-2" target="-v4zE6dxOBKlKihDwpab-4">
          <mxGeometry relative="1" as="geometry" />
        </mxCell>
        <mxCell id="-v4zE6dxOBKlKihDwpab-8" value="" style="edgeStyle=orthogonalEdgeStyle;rounded=0;hachureGap=4;orthogonalLoop=1;jettySize=auto;html=1;fontFamily=Architects Daughter;fontSource=https%3A%2F%2Ffonts.googleapis.com%2Fcss%3Ffamily%3DArchitects%2BDaughter;fontSize=16;" edge="1" parent="1" source="-v4zE6dxOBKlKihDwpab-2" target="-v4zE6dxOBKlKihDwpab-6">
          <mxGeometry relative="1" as="geometry" />
        </mxCell>
        <mxCell id="-v4zE6dxOBKlKihDwpab-2" value="&lt;font style=&quot;font-size: 13px;&quot; face=&quot;Verdana&quot;&gt;Preprocessing&lt;/font&gt;" style="rounded=0;whiteSpace=wrap;html=1;hachureGap=4;fontFamily=Architects Daughter;fontSource=https%3A%2F%2Ffonts.googleapis.com%2Fcss%3Ffamily%3DArchitects%2BDaughter;fontSize=20;" vertex="1" parent="1">
          <mxGeometry x="330" y="130" width="120" height="60" as="geometry" />
        </mxCell>
        <mxCell id="-v4zE6dxOBKlKihDwpab-4" value="&lt;font style=&quot;font-size: 13px;&quot; face=&quot;Verdana&quot;&gt;Improved median filtering&lt;/font&gt;" style="ellipse;whiteSpace=wrap;html=1;hachureGap=4;fontFamily=Architects Daughter;fontSource=https%3A%2F%2Ffonts.googleapis.com%2Fcss%3Ffamily%3DArchitects%2BDaughter;fontSize=20;" vertex="1" parent="1">
          <mxGeometry x="110" y="120" width="130" height="80" as="geometry" />
        </mxCell>
        <mxCell id="-v4zE6dxOBKlKihDwpab-9" value="" style="edgeStyle=orthogonalEdgeStyle;rounded=0;hachureGap=4;orthogonalLoop=1;jettySize=auto;html=1;fontFamily=Architects Daughter;fontSource=https%3A%2F%2Ffonts.googleapis.com%2Fcss%3Ffamily%3DArchitects%2BDaughter;fontSize=16;" edge="1" parent="1" source="-v4zE6dxOBKlKihDwpab-6" target="-v4zE6dxOBKlKihDwpab-7">
          <mxGeometry relative="1" as="geometry" />
        </mxCell>
        <mxCell id="-v4zE6dxOBKlKihDwpab-18" value="" style="edgeStyle=orthogonalEdgeStyle;rounded=0;hachureGap=4;orthogonalLoop=1;jettySize=auto;html=1;fontFamily=Architects Daughter;fontSource=https%3A%2F%2Ffonts.googleapis.com%2Fcss%3Ffamily%3DArchitects%2BDaughter;fontSize=16;" edge="1" parent="1" source="-v4zE6dxOBKlKihDwpab-6" target="-v4zE6dxOBKlKihDwpab-17">
          <mxGeometry relative="1" as="geometry" />
        </mxCell>
        <mxCell id="-v4zE6dxOBKlKihDwpab-6" value="&lt;font style=&quot;font-size: 13px;&quot; face=&quot;Verdana&quot;&gt;Segmentation&lt;/font&gt;" style="rounded=0;whiteSpace=wrap;html=1;hachureGap=4;fontFamily=Architects Daughter;fontSource=https%3A%2F%2Ffonts.googleapis.com%2Fcss%3Ffamily%3DArchitects%2BDaughter;fontSize=20;" vertex="1" parent="1">
          <mxGeometry x="330" y="230" width="120" height="60" as="geometry" />
        </mxCell>
        <mxCell id="-v4zE6dxOBKlKihDwpab-12" value="" style="edgeStyle=orthogonalEdgeStyle;rounded=0;hachureGap=4;orthogonalLoop=1;jettySize=auto;html=1;fontFamily=Architects Daughter;fontSource=https%3A%2F%2Ffonts.googleapis.com%2Fcss%3Ffamily%3DArchitects%2BDaughter;fontSize=16;" edge="1" parent="1" source="-v4zE6dxOBKlKihDwpab-7" target="-v4zE6dxOBKlKihDwpab-10">
          <mxGeometry relative="1" as="geometry" />
        </mxCell>
        <mxCell id="-v4zE6dxOBKlKihDwpab-14" value="" style="edgeStyle=orthogonalEdgeStyle;rounded=0;hachureGap=4;orthogonalLoop=1;jettySize=auto;html=1;fontFamily=Architects Daughter;fontSource=https%3A%2F%2Ffonts.googleapis.com%2Fcss%3Ffamily%3DArchitects%2BDaughter;fontSize=16;" edge="1" parent="1" source="-v4zE6dxOBKlKihDwpab-7" target="-v4zE6dxOBKlKihDwpab-13">
          <mxGeometry relative="1" as="geometry" />
        </mxCell>
        <mxCell id="-v4zE6dxOBKlKihDwpab-7" value="&lt;font style=&quot;font-size: 13px;&quot; face=&quot;Verdana&quot;&gt;Feature Extraction&lt;/font&gt;" style="rounded=0;whiteSpace=wrap;html=1;hachureGap=4;fontFamily=Architects Daughter;fontSource=https%3A%2F%2Ffonts.googleapis.com%2Fcss%3Ffamily%3DArchitects%2BDaughter;fontSize=20;" vertex="1" parent="1">
          <mxGeometry x="330" y="330" width="120" height="60" as="geometry" />
        </mxCell>
        <mxCell id="-v4zE6dxOBKlKihDwpab-10" value="&lt;p style=&quot;line-height: 90%;&quot;&gt;&lt;font style=&quot;font-size: 13px;&quot; face=&quot;Verdana&quot;&gt;Tumor size,Median binary pattern&lt;/font&gt;&lt;/p&gt;" style="rounded=0;whiteSpace=wrap;html=1;hachureGap=4;fontFamily=Architects Daughter;fontSource=https%3A%2F%2Ffonts.googleapis.com%2Fcss%3Ffamily%3DArchitects%2BDaughter;fontSize=20;" vertex="1" parent="1">
          <mxGeometry x="130" y="310" width="120" height="60" as="geometry" />
        </mxCell>
        <mxCell id="-v4zE6dxOBKlKihDwpab-16" value="" style="edgeStyle=orthogonalEdgeStyle;rounded=0;hachureGap=4;orthogonalLoop=1;jettySize=auto;html=1;fontFamily=Architects Daughter;fontSource=https%3A%2F%2Ffonts.googleapis.com%2Fcss%3Ffamily%3DArchitects%2BDaughter;fontSize=16;" edge="1" parent="1" source="-v4zE6dxOBKlKihDwpab-13" target="-v4zE6dxOBKlKihDwpab-15">
          <mxGeometry relative="1" as="geometry" />
        </mxCell>
        <mxCell id="-v4zE6dxOBKlKihDwpab-20" value="" style="edgeStyle=orthogonalEdgeStyle;rounded=0;hachureGap=4;orthogonalLoop=1;jettySize=auto;html=1;fontFamily=Architects Daughter;fontSource=https%3A%2F%2Ffonts.googleapis.com%2Fcss%3Ffamily%3DArchitects%2BDaughter;fontSize=16;" edge="1" parent="1" source="-v4zE6dxOBKlKihDwpab-13" target="-v4zE6dxOBKlKihDwpab-19">
          <mxGeometry relative="1" as="geometry" />
        </mxCell>
        <mxCell id="-v4zE6dxOBKlKihDwpab-13" value="&lt;font style=&quot;font-size: 13px;&quot; face=&quot;Verdana&quot;&gt;Classification&lt;/font&gt;" style="rounded=0;whiteSpace=wrap;html=1;hachureGap=4;fontFamily=Architects Daughter;fontSource=https%3A%2F%2Ffonts.googleapis.com%2Fcss%3Ffamily%3DArchitects%2BDaughter;fontSize=20;" vertex="1" parent="1">
          <mxGeometry x="330" y="430" width="120" height="60" as="geometry" />
        </mxCell>
        <mxCell id="-v4zE6dxOBKlKihDwpab-15" value="&lt;font style=&quot;font-size: 13px;&quot; face=&quot;Verdana&quot;&gt;Accuracy of Effected part&lt;/font&gt;" style="rounded=0;whiteSpace=wrap;html=1;hachureGap=4;fontFamily=Architects Daughter;fontSource=https%3A%2F%2Ffonts.googleapis.com%2Fcss%3Ffamily%3DArchitects%2BDaughter;fontSize=20;" vertex="1" parent="1">
          <mxGeometry x="330" y="530" width="120" height="60" as="geometry" />
        </mxCell>
        <mxCell id="-v4zE6dxOBKlKihDwpab-17" value="&lt;font style=&quot;font-size: 13px;&quot; face=&quot;Verdana&quot;&gt;FCN,LSTM&lt;/font&gt;" style="rounded=0;whiteSpace=wrap;html=1;hachureGap=4;fontFamily=Architects Daughter;fontSource=https%3A%2F%2Ffonts.googleapis.com%2Fcss%3Ffamily%3DArchitects%2BDaughter;fontSize=20;" vertex="1" parent="1">
          <mxGeometry x="550" y="240" width="120" height="60" as="geometry" />
        </mxCell>
        <mxCell id="-v4zE6dxOBKlKihDwpab-19" value="&lt;font style=&quot;font-size: 13px;&quot; face=&quot;Verdana&quot;&gt;CNN&lt;/font&gt;" style="rhombus;whiteSpace=wrap;html=1;hachureGap=4;fontFamily=Architects Daughter;fontSource=https%3A%2F%2Ffonts.googleapis.com%2Fcss%3Ffamily%3DArchitects%2BDaughter;fontSize=20;" vertex="1" parent="1">
          <mxGeometry x="550" y="360" width="80" height="80" as="geometry" />
        </mxCell>
      </root>
    </mxGraphModel>
  </diagram>
</mxfile>
